<?xml version="1.0" encoding="UTF-8"?>
<svg id="Layer_1" xmlns="http://www.w3.org/2000/svg" version="1.1" viewBox="0 0 217.9 21.6">
  <!-- Generator: Adobe Illustrator 29.2.1, SVG Export Plug-In . SVG Version: 2.1.0 Build 116)  -->
  <defs>
    <style>
      .st0 {
        fill: #114574;
      }

      .st1 {
        fill: #1a3e6f;
      }

      .st2 {
        fill: #4d4e53;
      }
    </style>
  </defs>
  <g>
    <g>
      <path class="st2" d="M213.3,4.8c0,.4.3.5.6.5s.5-.2.5-.4-.1-.3-.2-.3c-.2,0-.4-.1-.8-.2-.4-.1-.6-.4-.6-.6,0-.5.5-.7.9-.7s1,.3,1,.8h-.4c0-.3-.2-.4-.5-.4s-.5,0-.5.3.1.3.3.3c0,0,.6.2.7.2.3,0,.5.4.5.6,0,.6-.5.8-1,.8s-1.1-.3-1.1-.9h.4Z"/>
      <path class="st2" d="M215.3,3.1h.6l.7,2h0l.7-2h.6v2.5h-.4v-2h0l-.7,2h-.4l-.7-2h0v2h-.4v-2.5Z"/>
    </g>
    <g>
      <path class="st1" d="M122.8,7.1h2v1.9h0c.9-1.7,2.3-2.3,3.6-2.3s.8,0,1.1.1v2.2c-.5-.1-.9-.2-1.4-.2-2,0-3.4,1.2-3.4,3.4v5.3h-2V7.1Z"/>
      <path class="st1" d="M132.4,12.9c.2,2.2,2.1,3.3,3.9,3.3s2.7-.4,3.4-1.9h2.1c-1,2.5-3.3,3.5-5.4,3.5-4.1,0-6.1-2.6-6.1-5.6s2-5.6,6.1-5.6,5.7,1.6,5.7,5.9v.3h-9.6ZM139.9,11.4c-.3-1.9-1.8-3-3.7-3s-3.5,1.1-3.8,3h7.5Z"/>
      <path class="st1" d="M143.9,7.1h2v1.5h0c.8-1.1,2.4-1.7,4-1.7,3.2,0,5.7,2,5.7,5.5s-2.5,5.5-5.7,5.5-3.2-.6-4-1.7h0v5.4h-2V7.1ZM149.6,8.5c-2.7,0-3.9,1.9-3.9,3.9s1.5,3.9,3.9,3.9,3.8-1.5,3.8-3.9-1.1-3.9-3.8-3.9Z"/>
      <path class="st1" d="M157.4,10.4c.3-2.6,2.1-3.6,5.2-3.6s4.8.5,4.8,3v5.6c0,.6.3.9.9.9s.5,0,.7,0v1.4c-.5,0-1.1.1-1.6.1-1,0-1.7-.3-1.8-1.5-.8,1.1-2.8,1.7-4.5,1.7-3.5,0-4.3-1.8-4.3-3.2s1.1-2.9,4.5-3.3l2.3-.2c1.1-.1,1.8-.3,1.8-1.3,0-1.4-1.4-1.7-3-1.7s-3.2.5-3.2,2.1h-1.9ZM165.5,12.1c-.3.3-.8.5-2,.6l-2.3.3c-1.6.2-2.4.6-2.4,1.7s1,1.7,2.4,1.7c2.3,0,4.2-1.2,4.2-2.9v-1.3Z"/>
      <path class="st1" d="M170.1,3.2h2v2.2h-2v-2.2ZM170.1,7.1h2v10.5h-2V7.1Z"/>
      <path class="st1" d="M174.4,7.1h2v1.9h0c.9-1.7,2.3-2.3,3.6-2.3s.8,0,1.1.1v2.2c-.5-.1-.9-.2-1.4-.2-2,0-3.4,1.2-3.4,3.4v5.3h-2V7.1Z"/>
      <path class="st2" d="M182.4,3.2h1.5v14.4h-1.5V3.2Z"/>
      <path class="st2" d="M185.9,3.2h1.5v2.2h-1.5v-2.2ZM185.9,7.2h1.5v10.4h-1.5V7.2Z"/>
      <path class="st2" d="M198.2,10.9c0-2.1-1.3-2.8-3.1-2.8-2.9,0-4.2,1.5-4.2,3.8v5.6h-1.5V7.2h1.5v2h0c.4-1.1,2-2.4,4.3-2.4,3.5,0,4.5,1.8,4.5,4.3v6.4h-1.5v-6.7Z"/>
      <path class="st2" d="M201.8,3.2h1.5v9.1l6.3-5.1h2.2l-5.1,3.9,5.5,6.5h-2l-4.6-5.5-2.3,1.8v3.7h-1.5V3.2Z"/>
    </g>
  </g>
  <g>
    <g>
      <g>
        <path class="st0" d="M40.2.2c-8.3,0-11.6,4.8-11.6,10.4s3.3,10.4,11.6,10.4,11.6-4.8,11.6-10.4S48.5.2,40.2.2ZM40.2,17.9c-5.1,0-8-3-8-7.3s2.9-7.3,8-7.3,8,3,8,7.3-2.9,7.3-8,7.3Z"/>
        <polygon class="st0" points="54.2 20.6 71.7 20.6 71.7 17.1 57.6 17.1 57.6 12.1 69.6 12.1 69.6 8.6 57.6 8.6 57.6 4.1 71.7 4.1 71.7 .6 54.2 .6 54.2 20.6"/>
        <path class="st0" d="M91.1,14c-1.1,2.4-3.5,3.9-7,3.9s-7.7-3-7.7-7.3,2.8-7.3,7.7-7.3,5.9,1.5,7,3.9h3.6c-1.1-4-4.3-7-10.6-7s-11,4.8-11,10.4,3.1,10.4,11,10.4,9.5-3,10.6-7h-3.6Z"/>
      </g>
      <g>
        <circle class="st0" cx="3.2" cy="10.7" r="3.2"/>
        <circle class="st0" cx="16.8" cy="10.7" r="3.2"/>
        <circle class="st0" cx="10" cy="3.9" r="3.2"/>
        <circle class="st0" cx="10" cy="17.5" r="3.2"/>
      </g>
      <path class="st0" d="M96.7,0c1,0,1.9.8,1.9,1.8s-.8,1.9-1.9,1.9-1.9-.8-1.9-1.9.9-1.8,1.9-1.8ZM96.7,3.4c.9,0,1.5-.7,1.5-1.6s-.7-1.6-1.5-1.6-1.5.7-1.5,1.6.7,1.6,1.5,1.6ZM96,.8h.8c.5,0,.8.2.8.6s-.2.6-.6.6l.6,1h-.4l-.6-.9h-.4v.9h-.3V.8ZM96.4,1.7h.4c.3,0,.6,0,.6-.4s-.2-.3-.5-.3h-.4v.7Z"/>
    </g>
    <rect class="st0" x="111.6" y=".8" width=".4" height="19.8"/>
  </g>
</svg>